<svg width="60" height="60" viewBox="0 0 60 60" fill="none" xmlns="http://www.w3.org/2000/svg">
<g opacity="0.8">
<path d="M51.1621 2C53.2741 2 55.1618 2.95828 56.416 4.46289H37.4814V27.8125C37.4814 28.2844 37.864 28.6668 38.3359 28.667H40.0732C40.5452 28.667 40.9277 28.2845 40.9277 27.8125V17.4131H53.3711C53.8431 17.413 54.2256 17.0296 54.2256 16.5576V15.8604C54.2256 15.3884 53.843 15.0059 53.3711 15.0059H40.9277V6.87012H57.5713V6.45117C57.848 7.19415 58 7.99848 58 8.83789V50.1631C58 53.9393 54.9383 57.001 51.1621 57.001H9.83789C6.06168 57.001 3 53.9393 3 50.1631V8.83789C3 5.06168 6.06168 2 9.83789 2H51.1621ZM38.0938 30.332C37.6218 30.332 37.2394 30.7146 37.2393 31.1865V54.5361L55.4844 54.9561C55.964 54.9671 56.3594 54.5813 56.3594 54.1016V53.4004C56.3593 52.9378 55.9907 52.5589 55.5283 52.5459L40.6436 52.1299V31.1865C40.6435 30.7146 40.2601 30.332 39.7881 30.332H38.0938ZM7.88379 30.332C7.41191 30.3321 7.0294 30.7146 7.0293 31.1865V53.6816C7.0293 54.1536 7.41185 54.536 7.88379 54.5361H9.62109C10.093 54.536 10.4756 54.1536 10.4756 53.6816V34.6377H10.6016L27.4092 54.2383C27.5715 54.4275 27.8084 54.536 28.0576 54.5361H30.3408C30.8128 54.5361 31.1953 54.1536 31.1953 53.6816V31.1865C31.1952 30.7146 30.8127 30.3321 30.3408 30.332H28.6035C28.1317 30.3322 27.7491 30.7147 27.749 31.1865V50.0273H27.623L10.8994 30.6289C10.7371 30.4406 10.5006 30.332 10.252 30.332H7.88379ZM8.08984 4.46289C7.61788 4.46289 7.23545 4.84544 7.23535 5.31738V27.8125C7.23535 28.2845 7.61782 28.667 8.08984 28.667H9.82617C10.2982 28.667 10.6816 28.2845 10.6816 27.8125V17.3789H28.0391V27.8125C28.0391 28.2845 28.4215 28.667 28.8936 28.667H30.6299C31.1019 28.667 31.4854 28.2845 31.4854 27.8125V5.31738C31.4853 4.84544 31.1018 4.46289 30.6299 4.46289H28.8936C28.4216 4.46289 28.0392 4.84544 28.0391 5.31738V14.9717H10.6816V5.31738C10.6815 4.84544 10.2981 4.46289 9.82617 4.46289H8.08984Z" fill="#0678EA"/>
</g>
</svg>
